<svg width="24" height="24" viewBox="0 0 24 24" fill="none" xmlns="http://www.w3.org/2000/svg">
<path d="M20.2159 3.78293C19.0821 2.64894 17.6223 2.01576 16.1053 2.00002C14.5399 1.98474 13.0153 2.63694 11.8115 3.83918C10.7188 4.93048 9.91308 6.41883 9.60105 7.92258C9.25905 9.5699 8.47163 11.0474 7.32378 12.1953L7.27394 12.2451C7.16265 12.3564 7.10003 12.5074 7.10003 12.6648C7.10003 12.8223 7.16253 12.9732 7.27386 13.0845L7.53671 13.3474L5.28268 15.6016C4.93546 15.4067 4.53733 15.3064 4.13401 15.3191C3.52003 15.3382 2.95729 15.6031 2.5494 16.0651C1.81741 16.8943 1.81678 18.1454 2.54803 18.9751C2.94128 19.4215 3.48374 19.6861 4.0755 19.7202C4.18182 19.7263 4.27331 19.8178 4.2794 19.9242C4.31346 20.5159 4.57803 21.0584 5.02436 21.4517C5.43893 21.8171 5.95866 21.9998 6.47847 21.9998C6.99886 21.9998 7.51937 21.8166 7.93417 21.4503C8.39616 21.0424 8.66112 20.4796 8.68019 19.8656C8.69269 19.4621 8.59261 19.0641 8.39765 18.7168L10.6517 16.4626L10.9147 16.7257C11.0306 16.8415 11.1825 16.8995 11.3343 16.8995C11.4861 16.8995 11.638 16.8416 11.7538 16.7259L11.8039 16.6758C12.9512 15.5284 14.4293 14.7408 16.0782 14.398C17.5794 14.0858 19.0657 13.2815 20.1558 12.1913C21.3604 10.9867 22.0153 9.46129 21.9997 7.89621C21.9846 6.3791 21.3511 4.91833 20.2159 3.78293ZM7.19679 18.2391C6.96503 18.4708 6.96503 18.8466 7.19679 19.0784C7.39714 19.2788 7.50265 19.5452 7.49386 19.8287C7.48503 20.1118 7.36241 20.3717 7.14858 20.5605C6.77315 20.892 6.18468 20.8923 5.80893 20.5612C5.60233 20.3791 5.47995 20.1286 5.46425 19.856C5.42331 19.144 4.85553 18.5761 4.14358 18.5352C3.87085 18.5195 3.62042 18.397 3.43839 18.1904C3.10729 17.8147 3.1076 17.2262 3.43909 16.8507C3.62784 16.6369 3.88772 16.5143 4.17081 16.5054C4.18178 16.5051 4.19272 16.5049 4.20362 16.5049C4.47479 16.5049 4.72846 16.6099 4.92108 16.8025C5.15276 17.0342 5.5285 17.0343 5.7603 16.8025L8.37593 14.1867L9.81245 15.6233L7.19679 18.2391ZM19.3166 11.3519C18.3994 12.2691 17.0985 12.9734 15.8366 13.2357C14.1372 13.589 12.5947 14.3603 11.3448 15.4771L8.5223 12.6544C9.6396 11.4039 10.4106 9.86187 10.7631 8.16377C11.0254 6.89985 11.7309 5.59713 12.6502 4.67905C14.6169 2.71492 17.4458 2.69105 19.3766 4.62221C21.3087 6.55455 21.2835 9.38484 19.3166 11.3519Z" fill="#FB6D3A"/>
<ellipse cx="15.4091" cy="4.95428" rx="0.681819" ry="0.681818" fill="#FB6D3A"/>
<ellipse cx="17.2272" cy="6.31805" rx="0.681819" ry="0.681818" fill="#FB6D3A"/>
<ellipse cx="14.4999" cy="7.22723" rx="0.681818" ry="0.681818" fill="#FB6D3A"/>
</svg>
