<svg width="24" height="24" viewBox="0 0 24 24" fill="none" xmlns="http://www.w3.org/2000/svg">
<path d="M18.3289 20.5406C18.172 20.5406 18.0449 20.4134 18.0449 20.2566V19.6839C18.0449 19.527 18.1721 19.3999 18.3289 19.3999C18.4857 19.3999 18.6129 19.5271 18.6129 19.6839V20.2566C18.6129 20.4135 18.4857 20.5406 18.3289 20.5406Z" fill="#FB6D3A"/>
<path d="M19.9473 19.5308C19.7905 19.5308 19.6633 19.4036 19.6633 19.2468V18.6742C19.6633 18.5173 19.7905 18.3901 19.9473 18.3901C20.1042 18.3901 20.2313 18.5173 20.2313 18.6742V19.2468C20.2313 19.4037 20.1041 19.5308 19.9473 19.5308Z" fill="#FB6D3A"/>
<path d="M20.967 15.3048C20.9784 15.2665 20.9905 15.2285 21.0009 15.1898C21.3721 13.8065 21.1497 12.2417 20.3578 10.6645C19.6342 9.22315 18.1798 7.86251 16.3676 6.93139C15.6381 6.55653 14.7273 6.20014 13.9182 6.06064C13.4454 5.65953 13.1535 5.06417 13.1535 4.41809V2.4951C13.1535 1.69884 12.5057 1.05103 11.7095 1.05103H10.0652C9.26891 1.05103 8.6211 1.69884 8.6211 2.4951V4.41809C8.6211 5.03197 8.35734 5.59972 7.92553 5.9989C6.98906 5.99595 5.7481 6.44843 4.80816 6.93139C2.99598 7.86251 1.54159 9.22315 0.817936 10.6645C0.0260323 12.2417 -0.196342 13.8065 0.174813 15.1898C0.528343 16.5073 1.4124 17.5791 2.6642 18.2076C3.36277 18.5583 4.1034 18.7348 4.8421 18.7347C5.42714 18.7347 6.01111 18.6239 6.57145 18.4014C6.78703 18.3158 6.99698 18.2146 7.20108 18.0988C8.16815 19.1297 9.49199 19.6956 10.9463 19.6956C11.3634 19.6956 11.7695 19.6481 12.1598 19.5573C13.0582 21.5835 15.2777 23.0206 17.8667 23.0206C21.2486 23.0206 24 20.5685 24 17.5544C24 16.3624 22.6657 15.6593 20.967 15.3048ZM15.935 7.7734C17.5726 8.6148 18.8762 9.82338 19.5119 11.0892C20.2479 12.5552 20.4024 13.9801 20.0254 15.1472C19.3157 15.0548 18.5763 15.0129 17.8668 15.0129C17.3141 15.0129 16.7434 15.0385 16.1828 15.0933C16.2996 14.5298 16.3593 13.9282 16.3593 13.2947C16.3593 11.5465 15.616 9.51977 14.3199 7.73417C14.1424 7.48976 13.9437 7.23724 13.7309 6.98946C14.2845 7.08082 15.0513 7.31932 15.935 7.7734ZM9.56774 4.41809V2.4951C9.56774 2.22084 9.79091 1.99766 10.0652 1.99766H11.7095C11.9837 1.99766 12.2069 2.22084 12.2069 2.4951V4.41809C12.2069 4.91909 12.3292 5.39862 12.5477 5.82486C11.9975 5.38456 11.436 5.08602 10.9463 5.08602C10.3907 5.08602 9.74263 5.47006 9.12365 6.00983C9.40668 5.53962 9.56774 4.99306 9.56774 4.41809ZM6.22209 17.5217C5.20875 17.9241 4.09604 17.8673 3.08898 17.3616C0.903811 16.2644 0.331141 13.7438 1.66393 11.0892C2.29951 9.82333 3.60319 8.61476 5.24077 7.7734C6.42206 7.16646 7.39429 6.94456 7.92806 6.94456C8.02846 6.94456 8.11312 6.95253 8.18095 6.9671C7.96092 7.22201 7.75546 7.4824 7.5727 7.73417C6.27661 9.51977 5.53331 11.5465 5.53331 13.2947C5.53331 14.8748 5.90334 16.2568 6.60966 17.3424C6.48276 17.409 6.35372 17.4694 6.22209 17.5217ZM10.9463 18.749C8.27484 18.749 6.47995 16.557 6.47995 13.2947C6.47995 11.7418 7.15748 9.91774 8.33882 8.29024C9.45665 6.75021 10.5556 6.0327 10.9463 6.0327C11.337 6.0327 12.436 6.75021 13.5538 8.29024C14.7351 9.91774 15.4127 11.7418 15.4127 13.2947C15.4127 13.9915 15.3304 14.6392 15.1754 15.2273C13.2868 15.5511 11.7335 16.2682 11.7335 17.5545C11.7335 17.9324 11.7768 18.3015 11.8591 18.658C11.5682 18.7179 11.2634 18.749 10.9463 18.749ZM17.8667 22.074C15.0068 22.074 12.6801 20.0466 12.6801 17.5544C12.6801 17.1523 13.2056 16.7511 14.1217 16.4535C15.0881 16.1397 16.4531 15.9596 17.8667 15.9596C19.2804 15.9596 20.6454 16.1397 21.6117 16.4535C22.5278 16.7511 23.0533 17.1524 23.0533 17.5544C23.0533 20.0465 20.7266 22.074 17.8667 22.074Z" fill="#FB6D3A"/>
<path d="M8.05763 13.2777C8.0446 13.2777 8.03143 13.2771 8.01821 13.276C7.75768 13.2546 7.5639 13.026 7.58537 12.7655C7.68802 11.5201 8.0056 10.4088 8.52924 9.46248C8.6558 9.23373 8.9438 9.151 9.17255 9.27751C9.40129 9.40412 9.48407 9.69212 9.35751 9.92082C8.89917 10.7491 8.62036 11.7323 8.52881 12.8432C8.50842 13.0905 8.30138 13.2777 8.05763 13.2777Z" fill="#FB6D3A"/>
<path d="M10.0844 8.6401C9.96567 8.6401 9.84689 8.59576 9.75497 8.50665C9.56728 8.32472 9.5626 8.02505 9.74452 7.83737C9.87141 7.70644 10.0422 7.5369 10.2383 7.38657C10.4457 7.22748 10.7429 7.26671 10.9019 7.47418C11.061 7.6816 11.0218 7.97874 10.8143 8.13779C10.6672 8.25062 10.5286 8.38862 10.4242 8.49624C10.3315 8.59196 10.208 8.6401 10.0844 8.6401Z" fill="#FB6D3A"/>
<path d="M2.28729 13.2544C2.25682 13.2544 2.22588 13.2515 2.19485 13.2453C1.93878 13.1945 1.77214 12.9464 1.82243 12.6902C1.83856 12.6082 2.23395 10.6678 3.70052 9.52312C3.90658 9.3622 4.20405 9.39891 4.36483 9.60497C4.5257 9.81108 4.489 10.1085 4.28294 10.2693C3.09954 11.193 2.75444 12.8569 2.75107 12.8736C2.70607 13.0985 2.50835 13.2544 2.28729 13.2544Z" fill="#FB6D3A"/>
</svg>
