<svg width="24" height="24" viewBox="0 0 24 24" fill="none" xmlns="http://www.w3.org/2000/svg">
<path d="M16.0779 8.59497L15.8433 8.6804L15.8593 8.92953C15.9374 10.1467 16.3264 11.6477 16.8212 13.1802C17.2917 14.6373 17.866 16.1466 18.3806 17.499C18.4089 17.5734 18.437 17.6473 18.465 17.7207C19.2225 19.7136 17.7477 21.8527 15.6151 21.8527H8.38455C6.25257 21.8527 4.77698 19.7141 5.53469 17.7207C5.56844 17.6319 5.60257 17.5422 5.63702 17.4517C6.13516 16.1429 6.70042 14.6579 7.16771 13.2139C7.66575 11.6749 8.06165 10.1558 8.14037 8.92953L8.15636 8.68039L7.92178 8.59497C7.36149 8.39092 6.96153 7.85298 6.96153 7.22511C6.96153 6.56217 7.40776 5.99985 8.01702 5.82473L8.34483 5.73051L8.2431 5.40496C7.99295 4.60434 8.27936 3.81091 8.96784 3.19235C9.66041 2.57011 10.7452 2.14705 11.9998 2.14705C13.2542 2.14705 14.3391 2.57003 15.0317 3.19225C15.7203 3.81078 16.0068 4.60419 15.7565 5.40494L15.6548 5.73049L15.9826 5.82473C16.5919 5.99989 17.0381 6.56217 17.0381 7.22511C17.0381 7.85298 16.6381 8.39093 16.0779 8.59497ZM15.3352 8.99325L15.3143 8.68232H15.0026H8.99703H8.6854L8.66445 8.99325C8.55226 10.6589 7.91366 12.7653 7.14495 14.9145L6.863 15.7027L7.6096 15.324L11.8807 13.1575L11.8807 13.1575C11.9555 13.1195 12.0441 13.1195 12.119 13.1575L12.119 13.1575L16.3901 15.324L17.1367 15.7027L16.8547 14.9145C16.086 12.7653 15.4474 10.6589 15.3352 8.99325ZM10.5426 3.39624V2.86794L10.0658 3.09537C9.57825 3.32789 9.13536 3.67252 8.88661 4.10378C8.62661 4.55456 8.58916 5.08899 8.91306 5.61046L9.01086 5.76791H9.19622H14.8033H14.9887L15.0865 5.61045C15.3956 5.11263 15.3785 4.58885 15.1306 4.1349C14.8926 3.69891 14.4532 3.34308 13.9338 3.09537L13.457 2.86796V3.39624V3.64405C13.457 3.78957 13.339 3.90756 13.1935 3.90756C13.048 3.90756 12.93 3.78957 12.93 3.64405V3.04788V2.75674L12.6415 2.71757C12.2143 2.65958 11.7852 2.65958 11.3581 2.71758L11.0696 2.75675V3.04788V3.64405C11.0696 3.78957 10.9516 3.90756 10.8061 3.90756C10.6606 3.90756 10.5426 3.78957 10.5426 3.64405V3.39624ZM6.02735 17.9079L6.33893 18.0263L6.02734 17.9079C5.39948 19.5597 6.61577 21.3257 8.38455 21.3257H15.6151C17.3821 21.3257 18.6008 19.5613 17.9723 17.9079L17.6607 18.0264L17.9723 17.9079C17.946 17.8388 17.92 17.7704 17.8942 17.7026C17.7442 17.3081 17.6024 16.9351 17.4594 16.5554L17.4137 16.4342L17.2982 16.3756L12.1506 13.7645L11.9998 13.688L11.849 13.7645L6.70142 16.3755L6.58591 16.4341L6.54026 16.5553C6.3993 16.9297 6.26298 17.2882 6.10842 17.6947C6.08197 17.7642 6.05498 17.8352 6.02735 17.9079ZM15.5809 6.29494H8.41873C7.90554 6.29494 7.48855 6.71192 7.48855 7.22511C7.48855 7.73831 7.90554 8.15529 8.41873 8.15529H15.5809C16.0941 8.15529 16.511 7.73831 16.511 7.22511C16.511 6.71192 16.0941 6.29494 15.5809 6.29494Z" fill="#FB6D3A" stroke="#FB6D3A" stroke-width="0.666667"/>
<path d="M9.61271 18.5648C9.94234 18.5648 10.2096 18.2976 10.2096 17.9679C10.2096 17.6383 9.94234 17.3711 9.61271 17.3711C9.28309 17.3711 9.01587 17.6383 9.01587 17.9679C9.01587 18.2976 9.28309 18.5648 9.61271 18.5648Z" fill="#FB6D3A"/>
<path d="M11.4032 16.7745C11.7329 16.7745 12.0001 16.5073 12.0001 16.1777C12.0001 15.848 11.7329 15.5808 11.4032 15.5808C11.0736 15.5808 10.8064 15.848 10.8064 16.1777C10.8064 16.5073 11.0736 16.7745 11.4032 16.7745Z" fill="#FB6D3A"/>
<path d="M12.5968 19.162C12.9265 19.162 13.1937 18.8947 13.1937 18.5651C13.1937 18.2355 12.9265 17.9683 12.5968 17.9683C12.2672 17.9683 12 18.2355 12 18.5651C12 18.8947 12.2672 19.162 12.5968 19.162Z" fill="#FB6D3A"/>
</svg>
